<?xml version="1.0" encoding="utf-8"?>
<!-- Generator: Adobe Illustrator 16.0.0, SVG Export Plug-In . SVG Version: 6.00 Build 0)  -->
<!DOCTYPE svg PUBLIC "-//W3C//DTD SVG 1.1//EN" "http://www.w3.org/Graphics/SVG/1.1/DTD/svg11.dtd">
<svg version="1.1" id="Layer_1" xmlns="http://www.w3.org/2000/svg" xmlns:xlink="http://www.w3.org/1999/xlink" x="0px" y="0px"
	 width="246.614px" height="153.071px" viewBox="-4.771 -5.47 246.614 153.071"
	 enable-background="new -4.771 -5.47 246.614 153.071" xml:space="preserve">
<g>
	<path fill="#D9E020" d="M69.701,114.656c-21.605,0-38.241-18.349-38.241-43.591s16.636-43.591,39.198-43.591
		c10.923,0,19.422,3.896,25.346,10.769l23.658-19.444C108.302,4.848,87.818-0.066,73.525-0.066
		c-42.259,0-73.038,27.727-73.038,71.131s30.779,71.131,73.038,71.131c13.34,0,26.954-3.883,37.755-12.021l-13.961-29.629
		C91.189,109.462,81.563,114.656,69.701,114.656z"/>
	<polygon fill="#D9E020" points="200.592,8.452 169.194,92.452 168.762,92.452 138.939,37.001 113.27,58.191 153.678,141.452 
		180.615,141.452 236.586,8.452 	"/>
</g>
</svg>
